<?xml version="1.0" encoding="UTF-8"?>
<svg id="Layer_2" data-name="Layer 2" xmlns="http://www.w3.org/2000/svg" viewBox="0 0 424.16 512">
  <defs>
    <style>
      .cls-1 {
        fill: #29869f;
      }

      .cls-2 {
        fill: #155063;
      }
    </style>
  </defs>
  <g id="Layer_1-2" data-name="Layer 1">
    <g>
      <g>
        <path class="cls-1" d="M177.1,183.5c16.32-1.65,22.71,3.3,33.32,14.59,8.93-11.06,20.56-18.05,35.16-14.25,8.09,2.14,14.98,7.44,19.13,14.7,6.96,12.12,4.55,23.3,1.01,35.75-8.76.59-21.58.18-30.64.16-2.3-4.07-5.6-10.85-9.83-12.62-2.82.5-1.77-.09-3.73,2.66-3.76,7.82-7.17,16.04-10.59,24.03-3.06-7.92-10.67-40.46-18.34-39.39-5.42,4.61-8.87,18.14-11.27,25.45-8.61.26-17.63.1-26.28.07-8.85-22.5-3.44-44.85,22.07-51.15Z"/>
        <path class="cls-1" d="M193.2,224.37c6.17,7.39,9.95,35.13,16.1,38.32,9.52-2.07,11.91-23.04,16.86-27.11.81,1.06,4.2,5.36,4.96,5.73,4.87,2.39,24.33,1.33,29.73,1.24-6.59,9.57-16.09,19.02-24.74,26.72-7.49,6.87-17.94,14.95-25.96,21.52-17.83-13.53-37.3-30.43-50.59-48.31,9.56.11,17.82.13,27.37-.4,2.12-5.89,4.21-11.79,6.27-17.71Z"/>
        <path class="cls-1" d="M266.21,386.58c-25.22-3.47-52.14,2.89-75.38,12.35-50.83,20.7-114.11,61.53-158.56,5.23-20.96-26.55-16.9-57.86-16.91-89.81v-86.53s.02-72.6.02-72.6c0-12.85-1.27-33.31,1.24-45.55,9.51-46.35,45.04-64.18,87.71-62.19-.12,9.67-.62,21.84-.14,31.32l283.51.08c-.49-22.11-4.87-41.45-21.59-57.62-9.57-9.32-21.52-15.83-34.53-18.84C316.78-.92,264.51.1,247.29.31c-36.14.45-74.67-.76-110.58.17l-1.49.04c-19.93,4.21-26.68,12.99-31.47,32.15-29.24-.89-53.14,3.31-75.26,24.25C9.39,75,.39,99.93.08,125.94c.02,48.48-.01,97.28-.02,145.81l.02,53.46c.02,16.93-.84,34.78,2.81,51.4,8.99,40.97,42.79,70.91,85.23,71.36,42.79.46,77.06-23.7,115.67-37.64,27.58-9.96,67.5-17.69,90.27,6.13,7.68,7.93,12.06,17.7,11.74,28.73-.3,10.73-4.87,20.9-12.69,28.25-7.44,7.08-17.43,10.83-27.68,10.39-27.95-1.2-40.92-31.01-76.8-25.67-9.66,1.45-18.66,5.76-25.84,12.38-12.58,11.44-16.42,25.34-18.34,41.41l15.72.05c2.24-22.49,17.13-42.95,40.54-38.89,28.41,4.92,37.47,28.76,71.55,25.51,10.06-.95,19.66-4.68,27.72-10.77,10.42-7.9,17.07-19.28,19.81-31.99,5.66-36.64-17.88-63.99-53.56-69.28ZM312.42,25.7c7.98-2.48,16.47,1.97,18.97,9.95,2.51,7.98-1.91,16.48-9.88,19.01-8.01,2.55-16.56-1.9-19.08-9.91-2.52-8.02,1.95-16.55,9.98-19.04ZM143.75,26.42c28.02-2.25,64.58.09,93.2.04,13.13-.02,17.89,17.88,3.35,27.14-25.08,1.61-52.36-.45-77.63.42-7.87.27-21.68,1.23-25.96-6.52-5.31-9.62-1.37-15.83,7.03-21.09Z"/>
        <path class="cls-1" d="M109.24,92.78c91.87-1.95,186.47,1,278.79-.41l-.07,107.34c.09,46.36,8.28,87.37-36.21,115.93-.57-.44-1.02-.78-1.62-1.19l-.88-.59c-14.25-9.62-16.54-2.31-31.06-17.03,34.87-65.02,16.09-137.74-49-174.17-17.71-8.84-33.75-13.71-53.63-14.51-33.69-1.65-66.61,10.42-91.25,33.46-24.42,22.43-38.8,53.74-39.91,86.88-1.27,37.18,12.5,66.94,37.47,93.71-21.86.33-36.72-.18-54.96-15.65C9.04,257.48,18.07,98.29,109.24,92.78Z"/>
      </g>
      <path class="cls-2" d="M421.11,402.31c-8.54-11.37-21.72-22.2-32.36-32.1l-43.41-40.49c-6.32-5.8-10.28-9.26-19.16-8.86-.67.03-1.34.08-2.01.13-8.5-7.45-16.01-14.59-24.12-22.42,17.66-24.36,24.98-52.85,20.27-82.74-4.61-29.2-20.65-55.37-44.59-72.73-21.49-15.38-47.71-22.71-74.06-20.71-31.8,3.53-58.59,15.65-78.91,41.15-18.71,23.39-27.15,53.36-23.4,83.08,3.52,29.01,18.47,55.42,41.54,73.36,23.57,18.48,53.57,26.71,83.27,22.85,23.37-2.91,39.33-11.43,57.76-25.09,7.94,7.33,15.85,14.71,23.71,22.14.91,15.86,7.21,19.53,18.24,30.28,10.74,10.47,22.03,20.55,32.75,31.03,11.63,11.26,29.74,33.55,45.75,34.6,14.56.95,27.98-21.16,18.72-33.48ZM212.34,320.65c-48.57,1.29-88.96-37.12-90.08-85.7-1.13-48.58,37.42-88.83,86-89.79,48.34-.96,88.37,37.37,89.49,85.71,1.12,48.34-37.07,88.49-85.41,89.78Z"/>
    </g>
  </g>
</svg>
