<?xml version="1.0" encoding="UTF-8"?>
<svg id="Layer_1" data-name="Layer 1" xmlns="http://www.w3.org/2000/svg" viewBox="0 0 500 500">
  <defs>
    <style>
      .cls-1 {
        fill: #fff;
      }

      .cls-2 {
        fill: #f8cd0d;
      }
    </style>
  </defs>
  <path class="cls-1" d="M125.29,466.66c-97.91,0-100.31-.97-105.09-2.9-7.66-3.09-14.12-9.35-17.28-16.74-3.81-8.9-3.9-17.41-.3-26.01,2.14-5.09,4.88-9.6,7.3-13.58.74-1.22,1.47-2.42,2.17-3.62l16.44-28.27,53.82-92.89,95.36-164.95c5.27-9.11,10.52-18.27,15.77-27.44,9.71-16.94,19.74-34.45,29.84-51.51,5.21-8.79,9.13-12.21,18.26-15.9,1.78-.72,3.67-1.17,5.58-1.34.51-.04,1-.08,1.51-.11.83-.05,1.71-.07,2.54-.07,9.06,0,16.57,2.88,22.99,8.8,4.01,3.7,8.27,10.1,37.27,63.04,3.29,6,5.88,10.74,7.13,12.94l128.3,226,32.31,56.42c.57,1,1.43,2.44,2.44,4.15,14.2,23.94,18.14,32.62,18.34,40.39,0,.05,0,.1,0,.14.16,8.86-3.39,17.47-9.74,23.64-8.81,8.62-22.01,9.79-33.77,9.79-3.28,0-6.36-.1-9.08-.19-1.76-.06-3.43-.11-4.61-.12l-43.17-.06-148.5.02c-4.57,0-14.15.04-26.89.09-25.16.11-63.19.27-98.95.27Z"/>
  <g>
    <path d="M248.86,40.83c.28-.02.54-.04.82-.06,4.52-.25,7.98.48,11.37,3.61,4.16,3.84,34.97,61.19,40.68,71.28l128.31,226.03,32.34,56.48c3.78,6.58,18.08,29.6,18.23,35.39.06,3.54-1.34,6.96-3.89,9.42-5.94,5.86-25.2,4-33.83,3.97l-43.22-.06-148.37.02c-25.61,0-217.72,1.34-223.84-1.12-2.84-1.14-5.5-3.56-6.7-6.38-1.64-3.84-1.9-6.96-.25-10.9,2.16-5.15,5.55-10.13,8.35-14.96l16.43-28.25,53.84-92.92,95.37-164.96c15.14-26.18,30.11-52.75,45.51-78.77,2.95-4.99,3.64-5.69,8.85-7.81Z"/>
    <path class="cls-2" d="M251.42,84.08c2.67,2.87,15.19,25.87,17.89,30.69l34.61,61.13c45.92,80.98,93.99,162.69,138.99,243.92l-194.89.1-191.03-.08L251.42,84.08Z"/>
  </g>
  <g>
    <path d="M145.05,403.37v-99.94h30.94l22.86,56.13h2.6l22.59-56.13h31.49v99.94h-22.18v-85.29l3.15.27-26.42,64.76h-21.36l-26.56-64.76,3.42-.27v85.29h-20.54Z"/>
    <path d="M277.99,403.37v-100.76h22.45v100.76h-22.45ZM294.41,371.33v-17.66h24.64c3.29,0,6.14-.66,8.56-1.99,2.42-1.32,4.29-3.19,5.61-5.61,1.32-2.42,1.99-5.22,1.99-8.42s-.66-6-1.99-8.42c-1.32-2.42-3.2-4.29-5.61-5.61-2.42-1.32-5.27-1.98-8.56-1.98h-24.64v-19.03h22.86c8.3,0,15.52,1.26,21.63,3.76,6.11,2.51,10.82,6.23,14.1,11.16,3.29,4.93,4.93,11.14,4.93,18.62v2.19c0,7.39-1.67,13.53-5,18.41-3.33,4.88-8.03,8.54-14.1,10.95-6.07,2.42-13.26,3.63-21.56,3.63h-22.86ZM338.63,403.37l-29.3-42.99h24.64l30.67,42.99h-26.01Z"/>
  </g>
</svg>