<?xml version="1.0" encoding="UTF-8"?>
<svg id="Layer_1" xmlns="http://www.w3.org/2000/svg" version="1.1" viewBox="0 0 500 500">
  <defs>
    <style>.st0{fill:#f8cd0d;}</style>
  </defs>
  <g>
    <path d="M248.8,34.4c.3,0,.6,0,.9,0,4.7-.3,8.2.5,11.7,3.7,4.3,4,36.1,63.1,42,73.5l132.4,233.2,33.4,58.3c3.9,6.8,18.6,30.5,18.8,36.5,0,3.7-1.4,7.2-4,9.7-6.1,6-26,4.1-34.9,4.1h-44.6c0,0-153.1,0-153.1,0-26.4,0-224.6,1.4-230.9-1.2-2.9-1.2-5.7-3.7-6.9-6.6-1.7-4-2-7.2-.3-11.2,2.2-5.3,5.7-10.5,8.6-15.4l17-29.1,55.5-95.9,98.4-170.2c15.6-27,31.1-54.4,46.9-81.3,3.1-5.1,3.8-5.9,9.1-8h0Z"/>
    <path class="st0" d="M251.5,79c2.8,3,15.7,26.7,18.5,31.7l35.7,63.1c47.4,83.5,97,167.8,143.4,251.6h-201.1c0,.1-197.1,0-197.1,0L251.5,79Z"/>
  </g>
  <g>
    <polygon points="199.9 363.2 197.2 363.2 173.7 305.3 141.7 305.3 141.7 408.4 162.9 408.4 162.9 329.3 186.8 387.5 208.8 387.5 232.8 328.7 232.8 408.4 255.7 408.4 255.7 305.3 223.2 305.3 199.9 363.2"/>
    <path d="M341.4,408.4h26.8l-26.3-36.9c6.1-2.5,10.9-6.2,14.3-11.2,3.4-5,5.2-11.4,5.2-19v-2.3c0-7.7-1.7-14.1-5.1-19.2s-8.2-8.9-14.5-11.5c-6.3-2.6-13.7-3.9-22.3-3.9h-40.5v104h23.2v-33h16.9l22.5,33ZM302,324.1h19.2c3.4,0,6.3.7,8.8,2,2.5,1.4,4.4,3.3,5.8,5.8,1.4,2.5,2,5.4,2,8.7s-.7,6.2-2,8.7c-1.4,2.5-3.3,4.4-5.8,5.8-2.5,1.4-5.4,2-8.8,2h-19.2v-33Z"/>
  </g>
</svg>
