<?xml version="1.0" encoding="UTF-8"?>
<svg id="Layer_1" xmlns="http://www.w3.org/2000/svg" version="1.1" viewBox="0 0 500 500">
  <defs>
    <style>.st0{fill:#076d3f;}</style>
  </defs>
  <path class="st0" d="M451.2,48.8c0,4.3,0,8.7,0,13,0,5.3,0,10.7,0,15.9v373.6s-402.3,0-402.3,0c0-3.5,0-7,.1-10.4,0-5.3.1-10.3.1-14.8V48.8s402.2,0,402.2,0M475,23.4H23.6s0,304.9,0,304.9v97.8c0,14.5-.7,35.5.1,49.5l1.2,1.1h451.5V177s0-99.4,0-99.4c0-17,.5-36.7-.2-53.5l-1.3-.8h0Z"/>
  <g>
    <polygon class="st0" points="168.6 255 164.4 255 127.9 165.1 78.3 165.1 78.3 325.1 111.2 325.1 111.2 202.4 148.2 292.6 182.4 292.6 219.7 201.4 219.7 325.1 255.2 325.1 255.2 165.1 204.8 165.1 168.6 255"/>
    <path class="st0" d="M388.1,325.1h41.6l-40.9-57.3c9.5-3.9,16.9-9.6,22.1-17.3,5.3-7.8,8-17.6,8-29.5v-3.5c0-12-2.6-21.9-7.9-29.8-5.3-7.9-12.8-13.8-22.6-17.9-9.8-4-21.3-6-34.6-6h-62.9v161.2h35.9v-51.3h26.2l34.9,51.3ZM327,194.3h29.8c5.3,0,9.8,1.1,13.7,3.2,3.9,2.1,6.9,5.1,9,9,2.1,3.9,3.2,8.4,3.2,13.5s-1.1,9.6-3.2,13.5c-2.1,3.9-5.1,6.9-9,9-3.9,2.1-8.4,3.2-13.7,3.2h-29.8v-51.3Z"/>
  </g>
</svg>
