<?xml version="1.0" encoding="UTF-8"?>
<svg id="Layer_1" data-name="Layer 1" xmlns="http://www.w3.org/2000/svg" viewBox="0 0 500 500">
  <defs>
    <style>
      .cls-1 {
        fill: #076d3f;
      }
    </style>
  </defs>
  <g>
    <path class="cls-1" d="M451.24,48.76c-.01,4.33-.04,8.7-.08,13.01-.04,5.28-.08,10.74-.08,15.87v99.37s.04,274.22.04,274.22H48.79c.03-3.49.07-7,.12-10.38.07-5.3.13-10.3.13-14.82v-97.77s-.05-279.46-.05-279.46l402.26-.03M475.01,23.38l-451.42.03.07,304.84v97.77c-.01,14.46-.7,35.46.1,49.51l1.21,1.09h451.52s-.03-299.61-.03-299.61v-99.37c-.01-17.01.45-36.72-.17-53.47l-1.29-.79h0Z"/>
    <g>
      <path class="cls-1" d="M78.35,325.06v-159.94h49.51l36.59,89.83h4.16l36.15-89.83h50.39v159.94h-35.49v-136.5l5.04.44-42.29,103.63h-34.18l-42.5-103.63,5.48-.44v136.5h-32.86Z"/>
      <path class="cls-1" d="M291.08,325.06v-161.25h35.93v161.25h-35.93ZM317.37,273.79v-28.26h39.44c5.26,0,9.82-1.06,13.69-3.18,3.87-2.12,6.86-5.11,8.98-8.98,2.12-3.87,3.18-8.36,3.18-13.47s-1.06-9.6-3.18-13.47c-2.12-3.87-5.12-6.86-8.98-8.98-3.87-2.12-8.43-3.18-13.69-3.18h-39.44v-30.45h36.59c13.29,0,24.83,2.01,34.62,6.02,9.78,4.02,17.31,9.97,22.57,17.86,5.26,7.89,7.89,17.82,7.89,29.8v3.51c0,11.83-2.67,21.66-8,29.47-5.33,7.82-12.85,13.66-22.57,17.53-9.72,3.87-21.22,5.81-34.51,5.81h-36.59ZM388.14,325.06l-46.89-68.8h39.44l49.08,68.8h-41.63Z"/>
    </g>
  </g>
</svg>
