<?xml version="1.0" encoding="UTF-8"?>
<svg id="Layer_1" xmlns="http://www.w3.org/2000/svg" version="1.1" viewBox="0 0 500 500">
  <defs>
    <style>.st0{fill:#ce2121;}</style>
  </defs>
  <g>
    <polygon points="178.7 256.9 174.9 256.9 141.6 175 96.4 175 96.4 320.9 126.4 320.9 126.4 208.9 160.2 291.3 191.3 291.3 225.3 208 225.3 320.9 257.7 320.9 257.7 175 211.7 175 178.7 256.9"/>
    <path d="M379,320.9h38l-37.3-52.2c8.7-3.5,15.4-8.8,20.2-15.8,4.9-7.1,7.3-16.1,7.3-26.9v-3.2c0-10.9-2.4-20-7.2-27.2-4.8-7.2-11.7-12.6-20.6-16.3-8.9-3.7-19.5-5.5-31.6-5.5h-57.4v147.1h32.8v-46.8h23.9l31.9,46.8ZM323.3,201.5h27.2c4.8,0,9,1,12.5,2.9,3.5,1.9,6.3,4.7,8.2,8.2,1.9,3.5,2.9,7.6,2.9,12.3s-1,8.8-2.9,12.3c-1.9,3.5-4.7,6.3-8.2,8.2-3.5,1.9-7.7,2.9-12.5,2.9h-27.2v-46.8Z"/>
  </g>
  <path class="st0" d="M488.4,245.7c-2.4-131.6-111-236.5-242.6-234.1C114.1,13.9,9.2,122.6,11.6,254.3c2.4,131.7,111.1,236.6,242.8,234.2,131.6-2.4,236.4-111.1,234-242.7ZM144.6,178.3c3.5,3.4,10.8,9.9,12.5,14,2.9.7,29.7,29.2,34.5,33.8,6.4,6.9,12.9,13.7,19.5,20.5l8.5,8.7c8.8,9.2,18.3,18.5,26.9,27.8,7.7,7.6,19.1,18.7,26.3,26.8,2.1,2.1,11,10.4,11.4,12.5,2.9,1.8,20.4,20.2,23.9,23.7l55.9,57.2c-27.5,19.9-51.1,32-85.3,37.5-48.3,7.6-97.6-4.3-137.1-33.1-41.7-30.1-69.7-75.6-77.8-126.4-8.5-53.9,4.6-104.4,36.6-148.2,14.7,14.8,29.3,29.7,43.7,44.8M437.3,273.8c-4.3,34.7-17.9,67.7-39.2,95.4-10.4-10.6-95.9-97.5-96.9-100.3-2.4-.6-24.7-24.6-28.3-28.3-8.9-8.8-17.7-17.8-26.2-27-11.7-11.8-23.1-23.9-35-35.5-25.8-26.7-51.8-53.2-77.9-79.6,39.8-31.5,86.9-46.3,137.7-40.4,49.6,6,94.7,31.6,125.4,71,32.1,41,46.7,93.1,40.5,144.8h0Z"/>
</svg>
