<?xml version="1.0" encoding="UTF-8"?>
<svg id="Layer_1" data-name="Layer 1" xmlns="http://www.w3.org/2000/svg" viewBox="0 0 500 500">
  <defs>
    <style>
      .cls-1 {
        fill: #ce2121;
      }
    </style>
  </defs>
  <g>
    <path d="M108.27,315.38v-134.63h41.68l30.8,75.61h3.5l30.43-75.61h42.42v134.63h-29.88v-114.9l4.24.37-35.59,87.23h-28.77l-35.78-87.23,4.61-.37v114.9h-27.66Z"/>
    <path d="M287.35,315.38v-135.73h30.25v135.73h-30.25ZM309.48,272.23v-23.79h33.2c4.43,0,8.27-.89,11.53-2.67,3.26-1.78,5.78-4.3,7.56-7.56,1.78-3.26,2.67-7.04,2.67-11.34s-.89-8.08-2.67-11.34c-1.78-3.26-4.3-5.78-7.56-7.56-3.26-1.78-7.1-2.67-11.53-2.67h-33.2v-25.63h30.8c11.19,0,20.9,1.69,29.14,5.07,8.24,3.38,14.57,8.39,19,15.03,4.43,6.64,6.64,15,6.64,25.08v2.95c0,9.96-2.24,18.23-6.73,24.8-4.49,6.58-10.82,11.5-19,14.75-8.18,3.26-17.86,4.89-29.05,4.89h-30.8ZM369.05,315.38l-39.47-57.91h33.2l41.31,57.91h-35.04Z"/>
  </g>
  <path class="cls-1" d="M469.99,246.04c-2.18-121.46-102.39-218.16-223.84-216.03C124.61,32.14,27.83,132.42,30.01,253.96c2.18,121.54,102.51,218.27,224.05,216.03,121.46-2.24,218.11-102.49,215.93-223.94ZM152.76,183.81c3.21,3.09,9.96,9.12,11.51,12.93,2.68.63,27.38,26.98,31.87,31.15,5.93,6.36,11.93,12.66,17.99,18.89l7.85,8c8.1,8.51,16.88,17.1,24.78,25.64,7.12,7.04,17.6,17.27,24.23,24.74,1.93,1.92,10.13,9.59,10.55,11.52,2.68,1.68,18.85,18.62,22.01,21.87l51.59,52.76c-25.38,18.32-47.19,29.57-78.66,34.56-44.53,6.99-90-3.98-126.44-30.51-38.46-27.79-64.28-69.74-71.76-116.59-7.86-49.76,4.28-96.29,33.74-136.77,13.6,13.63,27.04,27.4,40.35,41.32M422.81,271.96c-3.97,32.05-16.48,62.45-36.2,88.03-9.57-9.81-88.5-89.94-89.41-92.54-2.2-.57-22.83-22.69-26.11-26.14-8.22-8.16-16.29-16.46-24.22-24.91-10.83-10.86-21.35-22.02-32.29-32.74-23.82-24.61-47.77-49.09-71.86-73.43,36.74-29.08,80.2-42.76,127.06-37.29,45.73,5.57,87.36,29.13,115.67,65.47,29.65,37.81,43.09,85.85,37.35,133.56Z"/>
</svg>
