<?xml version="1.0" encoding="UTF-8"?>
<svg id="Layer_2" data-name="Layer 2" xmlns="http://www.w3.org/2000/svg" viewBox="0 0 588.78 121.5">
  <defs>
    <style>
      .cls-1 { fill: url(#linear-gradient); }
      .cls-2 { fill: #155063; }
    </style>
    <linearGradient id="linear-gradient" x1="473.23" y1="47.25" x2="588.78" y2="47.25" gradientUnits="userSpaceOnUse">
      <stop offset="0" stop-color="#29869f"/>
      <stop offset="1" stop-color="#29a8cc"/>
    </linearGradient>
  </defs>
  <g id="Layer_1-2" data-name="Layer 1">
    <g>
      <path class="cls-1" d="M473.23,94.5V0h24.3v94.5h-24.3ZM507.78,94.5V0h35.77c9.45,0,17.55,1.71,24.3,5.13,6.75,3.42,11.92,8.48,15.52,15.19,3.6,6.71,5.4,15.01,5.4,24.91v2.7c0,10.08-1.84,18.58-5.53,25.51-3.69,6.93-9.02,12.17-16,15.73-6.98,3.56-15.32,5.33-25.04,5.33h-34.42ZM532.08,74.52h8.77c4.14,0,7.9-.85,11.27-2.56,3.38-1.71,6.14-4.52,8.3-8.44,2.16-3.91,3.24-9.11,3.24-15.59v-2.7c0-6.12-.97-11.02-2.9-14.71-1.94-3.69-4.52-6.37-7.76-8.03-3.24-1.66-6.84-2.5-10.8-2.5h-10.12v54.54Z"/>
      <path class="cls-2" d="M0,0h24.3v94.5H0V0ZM208.36,30.1c5.22,5.94,7.83,14.81,7.83,26.59v2.7c0,8.1-1.26,14.87-3.78,20.32-2.52,5.45-6.07,9.56-10.66,12.35-4.59,2.79-10.04,4.19-16.33,4.19-4.05,0-7.9-.92-11.54-2.77-3.64-1.84-6.68-4.52-9.11-8.03v36.04h-20.79V22.95h19.17v9.72c1.89-2.88,4.7-5.51,8.44-7.9,3.73-2.38,8.35-3.58,13.84-3.58,10.08,0,17.73,2.97,22.95,8.91ZM194.86,56.7c0-6.21-1.33-10.82-3.98-13.84-2.66-3.01-6.14-4.52-10.46-4.52-2.88,0-5.51.61-7.9,1.82-2.39,1.21-4.28,3.04-5.67,5.47-1.4,2.43-2.09,5.45-2.09,9.04v6.75c0,3.69.7,6.86,2.09,9.52,1.39,2.66,3.28,4.68,5.67,6.08,2.38,1.4,5.02,2.09,7.9,2.09,4.14,0,7.58-1.69,10.33-5.06,2.74-3.37,4.12-8.26,4.12-14.65v-2.7ZM114.39,21.19c-5.13,0-9.58,1.15-13.36,3.44-3.78,2.29-6.57,5.15-8.37,8.57-1.44-3.69-3.71-6.61-6.82-8.77-3.1-2.16-7.49-3.24-13.16-3.24-5.04,0-9.27,1.21-12.69,3.65-3.42,2.43-5.94,5.22-7.56,8.37v-10.26h-19.57v71.55h20.79v-42.12c0-2.88.52-5.35,1.55-7.42,1.03-2.07,2.41-3.67,4.12-4.79,1.71-1.12,3.65-1.69,5.81-1.69,3.51,0,6.05,1.06,7.63,3.17,1.57,2.12,2.36,5.69,2.36,10.73v42.12h20.79v-42.12c0-2.88.52-5.35,1.55-7.42,1.03-2.07,2.43-3.67,4.19-4.79,1.75-1.12,3.67-1.69,5.74-1.69,3.51,0,6.05,1.06,7.63,3.17,1.57,2.12,2.36,5.69,2.36,10.73v42.12h20.79v-47.25c0-8.64-2.02-15.14-6.08-19.51-4.05-4.36-9.95-6.55-17.68-6.55ZM380.44,21.19c-6.39,0-11.5,1.1-15.32,3.31-3.83,2.21-6.64,4.93-8.44,8.17v-9.72h-19.17v71.55h20.79v-41.85c0-2.61.49-4.97,1.49-7.09.99-2.11,2.54-3.82,4.66-5.13,2.11-1.3,4.84-1.96,8.17-1.96,4.59,0,7.9,1.19,9.92,3.58,2.02,2.39,3.04,5.92,3.04,10.6v41.85h20.79v-46.57c0-8.64-2.18-15.25-6.55-19.84-4.37-4.59-10.82-6.88-19.37-6.88ZM450.28,78.03c-3.78,0-6.32-.85-7.63-2.56-1.31-1.71-1.96-4.59-1.96-8.64v-26.86h16.33v-17.01h-16.33V6.75h-20.79v16.2h-8.77v17.01h8.77v30.24c0,6.3.9,11.27,2.7,14.92,1.8,3.65,4.59,6.26,8.37,7.83,3.78,1.57,8.64,2.36,14.58,2.36,3.06,0,5.54-.07,7.42-.2,1.89-.13,3.69-.34,5.4-.61v-16.87c-2.7.27-5.4.4-8.1.4ZM329.96,86.2c.18,2.83.45,5.6.81,8.3h-19.84c-.09-1.53-.2-2.88-.34-4.05-.13-1.17-.2-2.61-.2-4.32-2.16,2.88-5.15,5.29-8.98,7.22-3.83,1.93-8.8,2.9-14.92,2.9-5.13,0-9.52-.99-13.16-2.97-3.65-1.98-6.41-4.7-8.3-8.17-1.89-3.46-2.83-7.31-2.83-11.54,0-7.11,2.18-12.55,6.55-16.33,4.36-3.78,10.96-5.67,19.78-5.67h20.25v-2.97c0-4.32-1.01-7.29-3.04-8.91-2.03-1.62-4.88-2.43-8.57-2.43-3.33,0-5.81.52-7.42,1.55-1.62,1.04-2.52,2.72-2.7,5.06h-20.79c.27-4.32,1.64-8.19,4.12-11.61,2.47-3.42,6.03-6.12,10.66-8.1,4.63-1.98,10.24-2.97,16.81-2.97s11.97.94,16.74,2.83c4.77,1.89,8.48,4.93,11.14,9.11,2.65,4.19,3.98,9.79,3.98,16.81v26.32c0,3.78.09,7.09.27,9.92ZM308.76,64.53h-16.2c-3.06,0-5.33.81-6.82,2.43-1.49,1.62-2.23,3.47-2.23,5.53,0,2.7.74,4.88,2.23,6.55,1.48,1.67,3.98,2.5,7.49,2.5,2.97,0,5.62-.54,7.96-1.62,2.34-1.08,4.18-2.72,5.53-4.93,1.35-2.2,2.03-4.7,2.03-7.49v-2.97ZM252.91,78.03c-3.87,0-6.41-.88-7.63-2.63-1.21-1.75-1.82-4.84-1.82-9.25V0h-20.79v69.25c0,7.11.88,12.53,2.63,16.27,1.75,3.74,4.48,6.3,8.17,7.69,3.69,1.39,8.41,2.09,14.17,2.09,1.35,0,2.63-.02,3.85-.07,1.21-.05,2.34-.09,3.38-.14,1.03-.05,2-.11,2.9-.2v-17.14c-.72.09-1.44.16-2.16.2-.72.05-1.62.07-2.7.07Z"/>
    </g>
  </g>
</svg>
